<svg width="24" height="24" viewBox="0 0 24 24" fill="none" xmlns="http://www.w3.org/2000/svg">
<g clip-path="url(#clip0_31_1757)">
<g clip-path="url(#clip1_31_1757)">
<path d="M0 6.00016V8.66683H24V6.00016C24 4.5275 22.806 3.3335 21.3333 3.3335H2.66667C1.194 3.3335 0 4.5275 0 6.00016Z" fill="#0099B5"/>
<path d="M24 18.0002V15.3335H0V18.0002C0 19.4728 1.194 20.6668 2.66667 20.6668H21.3333C22.806 20.6668 24 19.4728 24 18.0002Z" fill="#1EB53A"/>
<path d="M0 8.6665H24V9.6665H0V8.6665ZM0 14.3332H24V15.3332H0V14.3332Z" fill="#CE1126"/>
<path d="M0 11.9998V14.3332H24V9.6665H0V11.9998Z" fill="#EEEEEE"/>
<path d="M2.80001 6.10686C2.80001 5.07619 3.55001 4.22152 4.53334 4.05619C4.42067 4.03752 4.30467 4.02686 4.18667 4.02686C3.03801 4.02686 2.10667 4.95819 2.10667 6.10686C2.10667 7.25552 3.03801 8.18686 4.18667 8.18686C4.30467 8.18686 4.42067 8.17619 4.53334 8.15752C3.55001 7.99219 2.80001 7.13752 2.80001 6.10686ZM5.92201 7.64219L5.82867 7.35486L5.73534 7.64219H5.43267L5.67734 7.82019L5.58401 8.10752L5.82867 7.92952L6.07267 8.10752L5.97934 7.82019L6.22401 7.64219H5.92201ZM7.72334 7.64219L7.63001 7.35486L7.53667 7.64219H7.23467L7.47934 7.82019L7.38601 8.10752L7.63001 7.92952L7.87467 8.10752L7.78134 7.82019L8.02601 7.64219H7.72334ZM7.63001 5.69086L7.53667 5.97819H7.23467L7.47934 6.15619L7.38601 6.44352L7.63001 6.26552L7.87467 6.44352L7.78134 6.15619L8.02601 5.97819H7.72334L7.63001 5.69086ZM9.52534 7.64219L9.43201 7.35486L9.33867 7.64219H9.03667L9.28067 7.82019L9.18734 8.10752L9.43201 7.92952L9.67667 8.10752L9.58334 7.82019L9.82734 7.64219H9.52534ZM9.43201 5.69086L9.33867 5.97819H9.03667L9.28067 6.15619L9.18734 6.44352L9.43201 6.26552L9.67667 6.44352L9.58334 6.15619L9.82734 5.97819H9.52534L9.43201 5.69086ZM9.43201 4.02686L9.33867 4.31419H9.03667L9.28067 4.49219L9.18734 4.77952L9.43201 4.60152L9.67667 4.77952L9.58334 4.49219L9.82734 4.31419H9.52534L9.43201 4.02686ZM11.3273 7.64219L11.234 7.35486L11.1407 7.64219H10.838L11.0827 7.82019L10.9893 8.10752L11.234 7.92952L11.478 8.10752L11.3847 7.82019L11.6293 7.64219H11.3273ZM11.234 5.69086L11.1407 5.97819H10.838L11.0827 6.15619L10.9893 6.44352L11.234 6.26552L11.478 6.44352L11.3847 6.15619L11.6293 5.97819H11.3273L11.234 5.69086ZM11.234 4.02686L11.1407 4.31419H10.838L11.0827 4.49219L10.9893 4.77952L11.234 4.60152L11.478 4.77952L11.3847 4.49219L11.6293 4.31419H11.3273L11.234 4.02686ZM13.1287 7.64219L13.0353 7.35486L12.942 7.64219H12.64L12.8847 7.82019L12.7913 8.10752L13.0353 7.92952L13.28 8.10752L13.1867 7.82019L13.4313 7.64219H13.1287ZM13.0353 5.69086L12.942 5.97819H12.64L12.8847 6.15619L12.7913 6.44352L13.0353 6.26552L13.28 6.44352L13.1867 6.15619L13.4313 5.97819H13.1287L13.0353 5.69086ZM13.0353 4.02686L12.942 4.31419H12.64L12.8847 4.49219L12.7913 4.77952L13.0353 4.60152L13.28 4.77952L13.1867 4.49219L13.4313 4.31419H13.1287L13.0353 4.02686Z" fill="white"/>
</g>
</g>
<defs>
<clipPath id="clip0_31_1757">
<rect width="24" height="24" fill="white"/>
</clipPath>
<clipPath id="clip1_31_1757">
<rect width="24" height="24" fill="white"/>
</clipPath>
</defs>
</svg>
